<svg width="20" height="20" viewBox="0 0 20 20" fill="none" xmlns="http://www.w3.org/2000/svg">
<path d="M16.5623 2.5H3.43734C2.46067 2.5 1.6665 3.2475 1.6665 4.16667V15.8333C1.6665 16.7525 2.46067 17.5 3.43734 17.5H16.5623C17.539 17.5 18.3332 16.7525 18.3332 15.8333V4.16667C18.3332 3.2475 17.539 2.5 16.5623 2.5ZM16.5623 15.8333H3.43734C3.38984 15.8333 3.35734 15.82 3.34317 15.82C3.33734 15.82 3.334 15.8217 3.33317 15.8267L3.32317 4.205C3.329 4.19667 3.3665 4.16667 3.43734 4.16667H16.5623C16.6282 4.1675 16.664 4.19 16.6665 4.17333L16.6765 15.795C16.6707 15.8033 16.6332 15.8333 16.5623 15.8333Z" fill="white"/>
<path d="M5 5.83333H10V10.8333H5V5.83333ZM10.8333 12.5H5V14.1667H15V12.5H11.6667H10.8333ZM11.6667 9.16666H15V10.8333H11.6667V9.16666ZM11.6667 5.83333H15V7.49999H11.6667V5.83333Z" fill="white"/>
</svg>
