<svg width="20" height="20" viewBox="0 0 20 20" fill="none" xmlns="http://www.w3.org/2000/svg">
<path d="M9.99984 1.66666C5.48234 1.66666 1.6665 5.48249 1.6665 9.99999C1.6665 14.5175 5.48234 18.3333 9.99984 18.3333C14.5173 18.3333 18.3332 14.5175 18.3332 9.99999C18.3332 5.48249 14.5173 1.66666 9.99984 1.66666ZM9.99984 5.83332C11.439 5.83332 12.4998 6.89332 12.4998 8.33332C12.4998 9.77332 11.439 10.8333 9.99984 10.8333C8.5615 10.8333 7.49984 9.77332 7.49984 8.33332C7.49984 6.89332 8.5615 5.83332 9.99984 5.83332ZM5.74484 13.9767C6.49234 12.8767 7.739 12.1433 9.1665 12.1433H10.8332C12.2615 12.1433 13.5073 12.8767 14.2548 13.9767C13.1898 15.1167 11.679 15.8333 9.99984 15.8333C8.32067 15.8333 6.80984 15.1167 5.74484 13.9767Z" fill="white"/>
</svg>
