<svg width="20" height="20" viewBox="0 0 20 20" fill="none" xmlns="http://www.w3.org/2000/svg">
<path d="M3.75 13.75L4.63375 12.8663L2.3925 10.625H7.5V9.375H2.3925L4.63375 7.13375L3.75 6.25L0 10L3.75 13.75Z" fill="white"/>
<path d="M10 6.25C9.50744 6.24929 9.01959 6.34594 8.56449 6.5344C8.10939 6.72285 7.69602 6.99939 7.34814 7.34812L10 10L7.34814 12.6519C7.78423 13.0879 8.3211 13.4096 8.91121 13.5886C9.50133 13.7676 10.1265 13.7982 10.7313 13.6779C11.3361 13.5576 11.9019 13.29 12.3786 12.8988C12.8552 12.5076 13.2281 12.0048 13.4641 11.4351C13.7001 10.8654 13.7919 10.2463 13.7315 9.6326C13.6711 9.0189 13.4603 8.42958 13.1177 7.91683C12.7752 7.40407 12.3114 6.9837 11.7676 6.69296C11.2238 6.40222 10.6167 6.25007 10 6.25Z" fill="white"/>
<path d="M9.9998 1.25C8.8508 1.24931 7.71298 1.4756 6.65168 1.91589C5.59038 2.35617 4.62651 3.00178 3.81543 3.81563L4.69918 4.69938C5.74777 3.64973 7.08413 2.93467 8.53919 2.64467C9.99426 2.35466 11.5026 2.50275 12.8735 3.07018C14.2444 3.63762 15.4162 4.59891 16.2407 5.83244C17.0651 7.06597 17.5052 8.51632 17.5052 10C17.5052 11.4837 17.0651 12.934 16.2407 14.1676C15.4162 15.4011 14.2444 16.3624 12.8735 16.9298C11.5026 17.4973 9.99426 17.6453 8.53919 17.3553C7.08413 17.0653 5.74777 16.3503 4.69918 15.3006L3.81543 16.1844C4.83278 17.2016 6.0853 17.9522 7.46204 18.3697C8.83879 18.7873 10.2973 18.8588 11.7082 18.578C13.1192 18.2972 14.4392 17.6728 15.5512 16.76C16.6633 15.8473 17.533 14.6743 18.0834 13.3451C18.6339 12.0159 18.848 10.5715 18.7068 9.13977C18.5657 7.70806 18.0736 6.33325 17.2742 5.13713C16.4748 3.94102 15.3927 2.96052 14.1238 2.28249C12.855 1.60445 11.4385 1.24982 9.9998 1.25Z" fill="white"/>
</svg>
