<svg width="20" height="20" viewBox="0 0 20 20" fill="none" xmlns="http://www.w3.org/2000/svg">
<path d="M18.3332 4.99999C18.3332 4.08333 17.5832 3.33333 16.6665 3.33333H4.1665C3.70817 3.33333 3.33317 3.70833 3.33317 4.16666C3.33317 4.62499 3.70817 4.99999 4.1665 4.99999H16.6665V7.15833C17.2748 7.39999 17.8332 7.73333 18.3332 8.13333V4.99999ZM6.6665 7.49999H2.49984C2.08317 7.49999 1.6665 7.91666 1.6665 8.33333V15.8333C1.6665 16.25 2.08317 16.6667 2.49984 16.6667H6.6665C7.08317 16.6667 7.49984 16.25 7.49984 15.8333V8.33333C7.49984 7.91666 7.08317 7.49999 6.6665 7.49999ZM5.83317 15H3.33317V9.16666H5.83317V15ZM14.7915 14.1417C15.0415 13.95 15.2082 13.6667 15.2082 13.3333C15.2082 13.0571 15.0984 12.7921 14.9031 12.5968C14.7077 12.4014 14.4428 12.2917 14.1665 12.2917C13.8902 12.2917 13.6253 12.4014 13.4299 12.5968C13.2346 12.7921 13.1248 13.0571 13.1248 13.3333C13.1248 13.6667 13.2915 13.9583 13.5415 14.1417V17.7083C13.5415 18.05 13.8248 18.3333 14.1665 18.3333C14.5082 18.3333 14.7915 18.05 14.7915 17.7083V14.1417Z" fill="white"/>
<path d="M14.6168 11.3C15.4335 11.475 16.0835 12.1583 16.2252 12.9833C16.3168 13.5167 16.2002 14.025 15.9418 14.4333C15.8692 14.5521 15.8395 14.6922 15.8577 14.8302C15.8759 14.9682 15.9409 15.0958 16.0418 15.1917C16.3252 15.4667 16.7918 15.4333 17.0085 15.0917C17.4335 14.4083 17.6168 13.5667 17.4502 12.675C17.2002 11.375 16.1502 10.3167 14.8502 10.0667C14.3648 9.9664 13.8632 9.97539 13.3817 10.093C12.9002 10.2106 12.4509 10.4338 12.0664 10.7465C11.6819 11.0593 11.3718 11.4536 11.1585 11.901C10.9453 12.3484 10.8343 12.8377 10.8335 13.3333C10.8335 13.9833 11.0168 14.5833 11.3335 15.0917C11.5418 15.4333 12.0252 15.475 12.3002 15.1917C12.5002 14.9917 12.5418 14.6667 12.3918 14.425C12.1876 14.0977 12.0806 13.7191 12.0835 13.3333C12.0835 12.0417 13.2752 11.0167 14.6168 11.3Z" fill="white"/>
<path d="M13.5414 7.95C11.0914 8.225 9.10811 10.1833 8.79978 12.625C8.60811 14.1417 9.04145 15.55 9.88311 16.6417C10.1081 16.9333 10.5498 16.95 10.8164 16.6917C11.0414 16.4667 11.0498 16.1083 10.8581 15.8583C10.5095 15.402 10.2591 14.8783 10.1229 14.3204C9.9866 13.7625 9.96739 13.1824 10.0664 12.6167C10.211 11.7838 10.6058 11.0147 11.1983 10.4118C11.7908 9.80887 12.5529 9.40071 13.3831 9.24166C16.0164 8.75 18.3331 10.775 18.3331 13.3333C18.3331 14.275 18.0164 15.15 17.4831 15.85C17.2914 16.1 17.3081 16.4583 17.5331 16.6833C17.7914 16.9417 18.2331 16.9333 18.4581 16.6333C19.1909 15.6897 19.5869 14.5281 19.5831 13.3333C19.5831 10.1333 16.8081 7.58333 13.5414 7.95Z" fill="white"/>
</svg>
