<svg width="18" height="20" viewBox="0 0 18 20" fill="none" xmlns="http://www.w3.org/2000/svg">
<path d="M17.6275 9.83614L9.4491 0.21903C9.39021 0.149598 9.32027 0.0945134 9.24327 0.0569295C9.16627 0.0193456 9.08373 0 9.00037 0C8.91701 0 8.83447 0.0193456 8.75747 0.0569295C8.68047 0.0945134 8.61053 0.149598 8.55164 0.21903L0.373278 9.83614C0.135016 10.1165 0 10.4974 0 10.8946C0 11.7194 0.569845 12.39 1.27073 12.39H2.13245V19.2523C2.13245 19.6659 2.41638 20 2.76782 20H7.72964V14.7662H9.95342V20H15.2329C15.5844 20 15.8683 19.6659 15.8683 19.2523V12.39H16.73C17.0676 12.39 17.3912 12.2334 17.6295 11.9507C18.1238 11.3666 18.1238 10.4203 17.6275 9.83614Z" fill="white"/>
</svg>
